<svg width="36" height="36" viewBox="0 0 36 36" fill="none" xmlns="http://www.w3.org/2000/svg">
<path fill-rule="evenodd" clip-rule="evenodd" d="M18 3.6C18.4774 3.6 18.9352 3.78964 19.2728 4.12721C19.6103 4.46477 19.8 4.92261 19.8 5.4V7.2C19.8 7.67739 19.6103 8.13522 19.2728 8.47279C18.9352 8.81036 18.4774 9 18 9C17.5226 9 17.0647 8.81036 16.7272 8.47279C16.3896 8.13522 16.2 7.67739 16.2 7.2V5.4C16.2 4.92261 16.3896 4.46477 16.7272 4.12721C17.0647 3.78964 17.5226 3.6 18 3.6V3.6ZM25.2 18C25.2 19.9096 24.4414 21.7409 23.0911 23.0912C21.7409 24.4414 19.9095 25.2 18 25.2C16.0904 25.2 14.2591 24.4414 12.9088 23.0912C11.5585 21.7409 10.8 19.9096 10.8 18C10.8 16.0904 11.5585 14.2591 12.9088 12.9088C14.2591 11.5586 16.0904 10.8 18 10.8C19.9095 10.8 21.7409 11.5586 23.0911 12.9088C24.4414 14.2591 25.2 16.0904 25.2 18V18ZM24.3648 26.91L25.6374 28.1826C25.9769 28.5105 26.4315 28.6919 26.9035 28.6878C27.3754 28.6837 27.8269 28.4944 28.1606 28.1607C28.4944 27.8269 28.6837 27.3755 28.6878 26.9035C28.6919 26.4316 28.5105 25.9769 28.1826 25.6374L26.91 24.3648C26.5705 24.0369 26.1158 23.8555 25.6439 23.8596C25.1719 23.8637 24.7204 24.053 24.3867 24.3867C24.053 24.7205 23.8637 25.1719 23.8596 25.6439C23.8555 26.1158 24.0369 26.5705 24.3648 26.91V26.91ZM28.1808 7.8174C28.5182 8.15495 28.7078 8.6127 28.7078 9.09C28.7078 9.56729 28.5182 10.025 28.1808 10.3626L26.91 11.6352C26.7439 11.8071 26.5453 11.9442 26.3257 12.0386C26.1061 12.1329 25.8699 12.1826 25.6309 12.1846C25.3919 12.1867 25.1549 12.1412 24.9337 12.0507C24.7124 11.9602 24.5115 11.8265 24.3425 11.6575C24.1735 11.4885 24.0398 11.2875 23.9493 11.0663C23.8588 10.8451 23.8132 10.6081 23.8153 10.3691C23.8174 10.1301 23.8671 9.89388 23.9614 9.67427C24.0557 9.45466 24.1929 9.25604 24.3648 9.09L25.6374 7.8174C25.9749 7.47995 26.4327 7.29038 26.91 7.29038C27.3873 7.29038 27.845 7.47995 28.1826 7.8174H28.1808ZM30.6 19.8C31.0774 19.8 31.5352 19.6104 31.8728 19.2728C32.2103 18.9352 32.4 18.4774 32.4 18C32.4 17.5226 32.2103 17.0648 31.8728 16.7272C31.5352 16.3896 31.0774 16.2 30.6 16.2H28.8C28.3226 16.2 27.8647 16.3896 27.5272 16.7272C27.1896 17.0648 27 17.5226 27 18C27 18.4774 27.1896 18.9352 27.5272 19.2728C27.8647 19.6104 28.3226 19.8 28.8 19.8H30.6ZM18 27C18.4774 27 18.9352 27.1896 19.2728 27.5272C19.6103 27.8648 19.8 28.3226 19.8 28.8V30.6C19.8 31.0774 19.6103 31.5352 19.2728 31.8728C18.9352 32.2104 18.4774 32.4 18 32.4C17.5226 32.4 17.0647 32.2104 16.7272 31.8728C16.3896 31.5352 16.2 31.0774 16.2 30.6V28.8C16.2 28.3226 16.3896 27.8648 16.7272 27.5272C17.0647 27.1896 17.5226 27 18 27V27ZM9.08998 11.6352C9.2571 11.8024 9.45552 11.9351 9.67392 12.0257C9.89232 12.1162 10.1264 12.1629 10.3628 12.163C10.5993 12.163 10.8334 12.1166 11.0519 12.0262C11.2703 11.9358 11.4688 11.8032 11.6361 11.6361C11.8033 11.469 11.936 11.2706 12.0266 11.0522C12.1171 10.8338 12.1638 10.5997 12.1638 10.3632C12.1639 10.1268 12.1174 9.89268 12.027 9.67422C11.9366 9.45575 11.8041 9.25724 11.637 9.09L10.3626 7.8174C10.0231 7.48951 9.56841 7.30808 9.09645 7.31219C8.6245 7.31629 8.17304 7.50559 7.8393 7.83932C7.50557 8.17306 7.31626 8.62452 7.31216 9.09648C7.30806 9.56843 7.48949 10.0231 7.81737 10.3626L9.08998 11.6352V11.6352ZM11.6352 26.91L10.3626 28.1826C10.0231 28.5105 9.56841 28.6919 9.09645 28.6878C8.6245 28.6837 8.17304 28.4944 7.8393 28.1607C7.50557 27.8269 7.31626 27.3755 7.31216 26.9035C7.30806 26.4316 7.48949 25.9769 7.81737 25.6374L9.08998 24.3648C9.42946 24.0369 9.88414 23.8555 10.3561 23.8596C10.8281 23.8637 11.2795 24.053 11.6132 24.3867C11.947 24.7205 12.1363 25.1719 12.1404 25.6439C12.1445 26.1158 11.9631 26.5705 11.6352 26.91V26.91ZM7.19998 19.8C7.67736 19.8 8.1352 19.6104 8.47277 19.2728C8.81033 18.9352 8.99997 18.4774 8.99997 18C8.99997 17.5226 8.81033 17.0648 8.47277 16.7272C8.1352 16.3896 7.67736 16.2 7.19998 16.2H5.39998C4.92259 16.2 4.46475 16.3896 4.12718 16.7272C3.78962 17.0648 3.59998 17.5226 3.59998 18C3.59998 18.4774 3.78962 18.9352 4.12718 19.2728C4.46475 19.6104 4.92259 19.8 5.39998 19.8H7.19998Z" fill="black"/>
</svg>
